<?xml version="1.0" encoding="utf-8"?>
<!-- Generator: Adobe Illustrator 24.1.2, SVG Export Plug-In . SVG Version: 6.00 Build 0)  -->
<svg version="1.1" id="Capa_1" xmlns="http://www.w3.org/2000/svg" xmlns:xlink="http://www.w3.org/1999/xlink" x="0px" y="0px"
	 viewBox="0 0 15.7 15.7" style="enable-background:new 0 0 15.7 15.7;" xml:space="preserve">
<style type="text/css">
	.st0{fill:#C7E2E8;}
</style>
<g>
	<g>
		<path class="st0" d="M8.5,0L7.2,0c-2,0.3-3.7,1.1-4.7,2.4c-0.8,1.1-1.2,2.4-1,3.9c0.4,2.9,2.8,6.8,4.7,8.5
			c0.5,0.4,1.1,0.8,1.4,0.9c0.1,0,0.2,0.1,0.3,0.1c0.1,0,0.2,0,0.3-0.1c1.2-0.6,2.4-1.9,3.8-4c0.9-1.5,2-3.5,2.2-5.5
			C14.5,2.8,12.3,0.5,8.5,0z M8.4,0.7c3.4,0.4,5.3,2.5,5.1,5.4c-0.2,1.9-1.3,3.9-2.1,5.2c-1.3,2-2.4,3.2-3.5,3.8c0,0,0,0,0,0
			c0,0-0.1,0-0.1,0c-0.1-0.1-0.7-0.4-1.1-0.8c-1.8-1.5-4.1-5.4-4.4-8.1C2.1,4.9,2.3,3.7,3.1,2.8c0.9-1.1,2.4-1.9,4.2-2.1L8.4,0.7z"
			/>
		<path class="st0" d="M3.5,6.8C3.4,6.9,3.4,6.9,3.4,7C3.7,9,5,10.6,7.2,10.1C7,8,5.7,6.9,3.5,6.8z"/>
		<path class="st0" d="M8.8,10.2c2.2-0.1,3.6-1.4,3.8-3.3C10.3,6.7,8.6,7.9,8.8,10.2z"/>
	</g>
</g>
</svg>
