<?xml version="1.0" encoding="utf-8"?>
<!-- Generator: Adobe Illustrator 24.1.2, SVG Export Plug-In . SVG Version: 6.00 Build 0)  -->
<svg version="1.1" id="Capa_1" xmlns="http://www.w3.org/2000/svg" xmlns:xlink="http://www.w3.org/1999/xlink" x="0px" y="0px"
	 viewBox="0 0 298 298" style="enable-background:new 0 0 298 298;" xml:space="preserve">
<style type="text/css">
	.st0{fill:#EC793E;}
</style>
<g>
	<path class="st0" d="M278.1,33h-0.2H235v67h42.9c11,0,20.1-9.1,20.1-20.2V52.5C298,41.5,289.2,33,278.1,33z"/>
	<path class="st0" d="M20.8,33C9.7,33,0,41.5,0,52.5v27.3c0,11,9.7,20.2,20.8,20.2H63V33H20.8z"/>
	<rect x="78" y="33" class="st0" width="142" height="67"/>
	<path class="st0" d="M278.1,198h-0.2H235v67h42.9c11,0,20.1-9.1,20.1-20.2v-27.3C298,206.5,289.2,198,278.1,198z"/>
	<rect x="78" y="198" class="st0" width="142" height="67"/>
	<path class="st0" d="M20.8,198C9.7,198,0,206.5,0,217.5v27.3c0,11,9.7,20.2,20.8,20.2H63v-67H20.8z"/>
	<path class="st0" d="M20.8,116C9.7,116,0,124,0,135v27.3c0,11,9.7,20.7,20.8,20.7H141v-67H20.8z"/>
	<path class="st0" d="M278.1,116h-0.2H156v67h121.9c11,0,20.1-9.6,20.1-20.7V135C298,124,289.2,116,278.1,116z"/>
</g>
</svg>
